# xmcd CD database file
#
# Track frame offsets:
#	150
#	17858
#	37753
#	55491
#	66863
#	76578
#	86829
#	95326
#	115200
#	132785
#	142315
#	153653
#	164423
#	175545
#	185022
#	196283
#	208073
#	228106
#	245460
#	259487
#	281234
#	289448
#	302389
#	312076
#	324878
#
# Disc length: 4572 seconds
#
# Revision: 0
# Processed by: cddbd v1.5.2PL0 Copyright (c) Steve Scherf et al.
# Submitted via: CDex 1.70beta2
#
DISCID=6611da19
DTITLE=Michel LEGRAND - La musique au puriel-CD3-Cinema
DYEAR=2012
DGENRE=Jazz
TTITLE0=Summer of 42
TTITLE1=Les demoiselles de Rochefort-1
TTITLE2=Les demoiselles de Rochefort-2
TTITLE3=The Go-between
TTITLE4=Peau d ane
TTITLE5=Cleo de 5 a 7
TTITLE6=Oum le dauphin
TTITLE7=The Picasso summer
TTITLE8=Dingo
TTITLE9=The three musketeers-1
TTITLE10=The three musketeers-2
TTITLE11=The Thomas Crown affair
TTITLE12=Uused score for Robin and Marian
TTITLE13=Les fabuleuses aventures du baron de Munchausen
TTITLE14=Les parapluies de Cherbourg
TTITLE15=The hunter
TTITLE16=Cinq jours en juin
TTITLE17=Le sauvage
TTITLE18=Never say never again
TTITLE19=La piscine
TTITLE20=La vielle fille
TTITLE21=Ice syation Zebra
TTITLE22=La buche
TTITLE23=La poudre d'escampette
TTITLE24=Oscar et la dame rose
EXTD=
EXTT0=
EXTT1=
EXTT2=
EXTT3=
EXTT4=
EXTT5=
EXTT6=
EXTT7=
EXTT8=
EXTT9=
EXTT10=
EXTT11=
EXTT12=
EXTT13=
EXTT14=
EXTT15=
EXTT16=
EXTT17=
EXTT18=
EXTT19=
EXTT20=
EXTT21=
EXTT22=
EXTT23=
EXTT24=
PLAYORDER=
